<?xml version="1.0" standalone="no"?><!DOCTYPE svg PUBLIC "-//W3C//DTD SVG 1.1//EN" "http://www.w3.org/Graphics/SVG/1.1/DTD/svg11.dtd"><svg t="1671432939994" class="icon" viewBox="0 0 1024 1024" version="1.1" xmlns="http://www.w3.org/2000/svg" p-id="2780" xmlns:xlink="http://www.w3.org/1999/xlink" width="200" height="200"><path d="M940.716 321.194H122.43c-45.922 0-83.284 37.362-83.284 83.284v527.966c0 45.922 37.362 83.284 83.284 83.284h818.286c45.924 0 83.284-37.362 83.284-83.284V404.478c0-45.922-37.36-83.284-83.284-83.284z m69.906 611.25c0 38.546-31.358 69.906-69.906 69.906H122.43c-38.546 0-69.906-31.358-69.906-69.906V404.478c0-38.546 31.358-69.906 69.906-69.906h818.286c38.546 0 69.906 31.358 69.906 69.906v527.966z" fill="#4B555F" p-id="2781"></path><path d="M940.702 350.178H122.412c-29.924 0-54.274 24.35-54.274 54.318v527.926c0 29.968 24.35 54.318 54.274 54.318h818.292c29.968 0 54.318-24.35 54.318-54.318V404.496c-0.002-29.968-24.35-54.318-54.32-54.318zM362.07 900.76c0 23.28-18.864 42.144-42.144 42.144H160.72c-23.28 0-42.144-18.864-42.144-42.144V445.702c0-23.278 18.864-42.144 42.144-42.144h159.208c23.28 0 42.144 18.864 42.144 42.144V900.76zM671.166 190.104H425.622c-50.446 0-91.342 40.896-91.342 91.342v46.438h42.678v-51.48c0-24.092 19.53-43.622 43.622-43.622h255.626c24.092 0 43.622 19.53 43.622 43.622v51.48h42.68v-46.438c0-50.446-40.896-91.342-91.342-91.342z" fill="#F58E70" p-id="2782"></path><path d="M671.164 183.414H425.622c-54.056 0-98.03 43.976-98.03 98.03v53.13h56.058v-58.168c0-20.364 16.566-36.934 36.932-36.934h255.626c20.364 0 36.934 16.568 36.934 36.934v58.168H769.2v-53.13c-0.002-54.054-43.98-98.03-98.036-98.03z m84.654 137.782h-29.3v-44.79c0-27.742-22.57-50.312-50.312-50.312H420.58c-27.742 0-50.31 22.57-50.31 50.312v44.79h-29.3v-39.75c0-46.678 37.974-84.652 84.652-84.652h245.544c46.678 0 84.654 37.974 84.654 84.652v39.75zM548.394 445.28h278.376v13.378H548.394zM489.024 498.756h401.028v13.378H489.024zM453.07 552.23h470.578v13.378H453.07zM436.13 605.706h505.716v13.378H436.13zM431.114 659.182h516.852v13.378H431.114zM436.13 712.656h505.716v13.378H436.13zM453.07 766.132h470.578v13.378H453.07zM484.918 819.606H894.16v13.378H484.918zM548.394 873.082h278.376v13.378H548.394zM319.94 396.858H160.73c-26.932 0-48.842 21.91-48.842 48.84v455.07c0 26.93 21.91 48.84 48.842 48.84h159.208c26.932 0 48.842-21.91 48.842-48.84V445.698c0.002-26.93-21.91-48.84-48.84-48.84z m35.462 503.91c0 19.554-15.91 35.462-35.464 35.462H160.73c-19.554 0-35.464-15.906-35.464-35.462V445.698c0-19.554 15.91-35.46 35.464-35.46h159.208c19.554 0 35.464 15.906 35.464 35.46v455.07z" fill="#4B555F" p-id="2783"></path><path d="M296.378 806.508h-76.748c-18.212 0-33.032 14.818-33.032 33.03s14.818 33.032 33.032 33.032h76.748c18.212 0 33.032-14.818 33.032-33.032s-14.82-33.03-33.032-33.03z m0 52.682h-76.748c-10.836 0-19.652-8.816-19.652-19.652s8.816-19.652 19.652-19.652h76.748c10.836 0 19.652 8.816 19.652 19.652s-8.816 19.652-19.652 19.652z" fill="#4B555F" p-id="2784"></path><path d="M193.294 839.528c0-7.268 2.944-13.824 7.716-18.596a26.292 26.292 0 0 1 18.642-7.716H188.254a26.284 26.284 0 0 0-18.642 7.716 26.184 26.184 0 0 0-7.716 18.596c0 14.538 11.774 26.356 26.356 26.356h31.396c-14.58 0-26.354-11.818-26.354-26.356z" fill="#F58E70" p-id="2785"></path><path d="M219.65 819.906v-13.378H188.254a32.854 32.854 0 0 0-23.374 9.674 32.792 32.792 0 0 0-9.672 23.326c0 18.222 14.824 33.046 33.046 33.046h31.396v-13.378c-10.844 0-19.668-8.824-19.668-19.668a19.482 19.482 0 0 1 5.756-13.864 19.54 19.54 0 0 1 13.912-5.758z m-31.396 39.29c-10.844 0-19.668-8.824-19.668-19.668a19.482 19.482 0 0 1 5.756-13.864 19.546 19.546 0 0 1 13.912-5.758h4.824a32.732 32.732 0 0 0-6.474 19.622c0 7.362 2.42 14.168 6.504 19.668h-4.854zM258.004 806.528c-11.668 0-21.16 9.492-21.16 21.16v23.724c0 11.666 9.492 21.16 21.16 21.16 11.67 0 21.162-9.492 21.162-21.16v-23.724c-0.002-11.668-9.494-21.16-21.162-21.16z m7.782 44.882a7.79 7.79 0 0 1-7.782 7.78 7.788 7.788 0 0 1-7.78-7.78v-23.724a7.788 7.788 0 0 1 7.78-7.78 7.79 7.79 0 0 1 7.782 7.78v23.724zM240.334 588.05c-51.64 0-93.652 42.012-93.652 93.652s42.012 93.652 93.652 93.652 93.652-42.012 93.652-93.652-42.01-93.652-93.652-93.652z m0 173.924c-44.262 0-80.272-36.01-80.272-80.272s36.01-80.272 80.272-80.272 80.272 36.01 80.272 80.272-36.008 80.272-80.272 80.272z" fill="#4B555F" p-id="2786"></path><path d="M240.334 622.612c-32.582 0-59.09 26.508-59.09 59.09 0 32.582 26.508 59.09 59.09 59.09 32.582 0 59.09-26.508 59.09-59.09 0-32.582-26.506-59.09-59.09-59.09z m0 104.802c-25.206 0-45.71-20.506-45.71-45.71s20.506-45.71 45.71-45.71 45.71 20.506 45.71 45.71-20.504 45.71-45.71 45.71z" fill="#4B555F" p-id="2787"></path><path d="M240.334 651.6c-16.6 0-30.102 13.502-30.102 30.102s13.502 30.102 30.102 30.102 30.102-13.502 30.102-30.102c0.002-16.598-13.502-30.102-30.102-30.102zM161.898 461.23h160.822v86.658H161.898z" fill="#FFD351" p-id="2788"></path><path d="M155.208 454.542v100.036h174.2v-100.036h-174.2z m160.822 86.656H168.588V467.92h147.444v73.278z" fill="#4B555F" p-id="2789"></path><path d="M186.6 504.56h13.378v43.328H186.6zM864.382 289.758v43.298h65.956v-43.298h-65.956z m52.576 29.92H877.76v-16.54h39.198v16.54z" fill="#4B555F" p-id="2790"></path><path d="M881.88 176.048v127.09h35.624V176.048H881.88z m22.246 113.71h-8.866V189.426h8.866v100.332z" fill="#4B555F" p-id="2791"></path><path d="M893.004 50.196h13.378v132.54h-13.378z" fill="#4B555F" p-id="2792"></path><path d="M899.694 8.272c-13.402 0-24.306 10.902-24.306 24.306s10.902 24.308 24.306 24.308S924 45.982 924 32.578s-10.904-24.306-24.306-24.306z m0 35.236c-6.026 0-10.926-4.904-10.926-10.93s4.902-10.926 10.926-10.926 10.926 4.902 10.926 10.926-4.902 10.93-10.926 10.93zM115.768 279.508C51.934 279.508 0 331.442 0 395.28v57.024h13.378V395.28c0-56.46 45.932-102.392 102.39-102.392h67.702v-13.378H115.768zM208.428 279.508h19.84v13.378h-19.84zM246.134 279.508h19.84v13.378h-19.84z" fill="#4B555F" p-id="2793"></path></svg>